<mxfile host="app.diagrams.net" modified="2023-04-06T00:31:48.095Z" agent="Mozilla/5.0 (Windows NT 10.0; Win64; x64) AppleWebKit/537.36 (KHTML, like Gecko) Chrome/111.0.0.0 Safari/537.36" etag="Y5hcwxq6VR9DSQ9_c2mH" version="21.1.4" type="device">
  <diagram id="8rHFhcqKlO_zTbBil2Gi" name="페이지-1">
    <mxGraphModel dx="1290" dy="483" grid="1" gridSize="10" guides="1" tooltips="1" connect="1" arrows="1" fold="1" page="1" pageScale="1" pageWidth="827" pageHeight="1169" math="0" shadow="0">
      <root>
        <mxCell id="0" />
        <mxCell id="1" parent="0" />
        <mxCell id="QoSjCk249HeYtzjDVs_1-1" value="" style="rounded=0;whiteSpace=wrap;html=1;fontFamily=Helvetica;fontSize=11;fontColor=default;" parent="1" vertex="1">
          <mxGeometry x="510" y="80" width="670" height="1280" as="geometry" />
        </mxCell>
        <mxCell id="QoSjCk249HeYtzjDVs_1-2" value="사용자" style="shape=umlActor;verticalLabelPosition=bottom;verticalAlign=top;html=1;outlineConnect=0;" parent="1" vertex="1">
          <mxGeometry x="290" y="690" width="30" height="60" as="geometry" />
        </mxCell>
        <mxCell id="QoSjCk249HeYtzjDVs_1-3" value="sns API" style="shape=umlActor;verticalLabelPosition=bottom;verticalAlign=top;html=1;outlineConnect=0;" parent="1" vertex="1">
          <mxGeometry x="1240" y="110" width="30" height="60" as="geometry" />
        </mxCell>
        <mxCell id="QoSjCk249HeYtzjDVs_1-4" value="회원가입" style="ellipse;whiteSpace=wrap;html=1;" parent="1" vertex="1">
          <mxGeometry x="580" y="110" width="100" height="60" as="geometry" />
        </mxCell>
        <mxCell id="QoSjCk249HeYtzjDVs_1-5" value="이메일&lt;br&gt;인증가입" style="ellipse;whiteSpace=wrap;html=1;" parent="1" vertex="1">
          <mxGeometry x="730" y="190" width="90" height="50" as="geometry" />
        </mxCell>
        <mxCell id="QoSjCk249HeYtzjDVs_1-6" style="edgeStyle=orthogonalEdgeStyle;rounded=0;orthogonalLoop=1;jettySize=auto;html=1;" parent="1" source="QoSjCk249HeYtzjDVs_1-8" target="QoSjCk249HeYtzjDVs_1-3" edge="1">
          <mxGeometry relative="1" as="geometry">
            <mxPoint x="950" y="140" as="targetPoint" />
          </mxGeometry>
        </mxCell>
        <mxCell id="QoSjCk249HeYtzjDVs_1-7" style="edgeStyle=orthogonalEdgeStyle;rounded=0;orthogonalLoop=1;jettySize=auto;html=1;" parent="1" source="QoSjCk249HeYtzjDVs_1-8" target="QoSjCk249HeYtzjDVs_1-4" edge="1">
          <mxGeometry relative="1" as="geometry" />
        </mxCell>
        <mxCell id="QoSjCk249HeYtzjDVs_1-8" value="SNS계정&lt;br&gt;연동가입" style="ellipse;whiteSpace=wrap;html=1;" parent="1" vertex="1">
          <mxGeometry x="730" y="115" width="90" height="50" as="geometry" />
        </mxCell>
        <mxCell id="QoSjCk249HeYtzjDVs_1-9" value="" style="endArrow=none;html=1;rounded=0;exitX=1;exitY=0.3333333333333333;exitDx=0;exitDy=0;exitPerimeter=0;entryX=0;entryY=0.5;entryDx=0;entryDy=0;" parent="1" source="QoSjCk249HeYtzjDVs_1-2" target="QoSjCk249HeYtzjDVs_1-4" edge="1">
          <mxGeometry width="50" height="50" relative="1" as="geometry">
            <mxPoint x="540" y="380" as="sourcePoint" />
            <mxPoint x="590" y="330" as="targetPoint" />
          </mxGeometry>
        </mxCell>
        <mxCell id="QoSjCk249HeYtzjDVs_1-10" value="" style="endArrow=none;html=1;rounded=0;entryX=0;entryY=0.5;entryDx=0;entryDy=0;edgeStyle=orthogonalEdgeStyle;exitX=0;exitY=0.5;exitDx=0;exitDy=0;" parent="1" source="QoSjCk249HeYtzjDVs_1-8" target="QoSjCk249HeYtzjDVs_1-5" edge="1">
          <mxGeometry width="50" height="50" relative="1" as="geometry">
            <mxPoint x="710" y="140" as="sourcePoint" />
            <mxPoint x="720" y="220" as="targetPoint" />
            <Array as="points">
              <mxPoint x="710" y="140" />
              <mxPoint x="710" y="215" />
            </Array>
          </mxGeometry>
        </mxCell>
        <mxCell id="QoSjCk249HeYtzjDVs_1-11" value="로그인" style="ellipse;whiteSpace=wrap;html=1;" parent="1" vertex="1">
          <mxGeometry x="580" y="250" width="100" height="60" as="geometry" />
        </mxCell>
        <mxCell id="QoSjCk249HeYtzjDVs_1-12" style="edgeStyle=orthogonalEdgeStyle;rounded=0;orthogonalLoop=1;jettySize=auto;html=1;entryX=1;entryY=0.5;entryDx=0;entryDy=0;" parent="1" source="QoSjCk249HeYtzjDVs_1-13" target="QoSjCk249HeYtzjDVs_1-11" edge="1">
          <mxGeometry relative="1" as="geometry" />
        </mxCell>
        <mxCell id="QoSjCk249HeYtzjDVs_1-13" value="SNS계정&lt;br&gt;로그인" style="ellipse;whiteSpace=wrap;html=1;" parent="1" vertex="1">
          <mxGeometry x="730" y="255" width="90" height="50" as="geometry" />
        </mxCell>
        <mxCell id="QoSjCk249HeYtzjDVs_1-14" value="이메일계정&lt;br&gt;로그인" style="ellipse;whiteSpace=wrap;html=1;" parent="1" vertex="1">
          <mxGeometry x="730" y="330" width="90" height="50" as="geometry" />
        </mxCell>
        <mxCell id="QoSjCk249HeYtzjDVs_1-15" value="" style="endArrow=none;html=1;rounded=0;exitX=1;exitY=0.3333333333333333;exitDx=0;exitDy=0;exitPerimeter=0;entryX=0;entryY=0.5;entryDx=0;entryDy=0;" parent="1" source="QoSjCk249HeYtzjDVs_1-2" target="QoSjCk249HeYtzjDVs_1-11" edge="1">
          <mxGeometry width="50" height="50" relative="1" as="geometry">
            <mxPoint x="480" y="420" as="sourcePoint" />
            <mxPoint x="590" y="450" as="targetPoint" />
          </mxGeometry>
        </mxCell>
        <mxCell id="QoSjCk249HeYtzjDVs_1-16" value="" style="endArrow=none;html=1;rounded=0;edgeStyle=orthogonalEdgeStyle;entryX=0;entryY=0.5;entryDx=0;entryDy=0;exitX=0;exitY=0.5;exitDx=0;exitDy=0;" parent="1" source="QoSjCk249HeYtzjDVs_1-13" target="QoSjCk249HeYtzjDVs_1-14" edge="1">
          <mxGeometry width="50" height="50" relative="1" as="geometry">
            <mxPoint x="620" y="420" as="sourcePoint" />
            <mxPoint x="670" y="370" as="targetPoint" />
            <Array as="points">
              <mxPoint x="710" y="280" />
              <mxPoint x="710" y="355" />
            </Array>
          </mxGeometry>
        </mxCell>
        <mxCell id="QoSjCk249HeYtzjDVs_1-17" value="" style="endArrow=none;html=1;rounded=0;exitX=1;exitY=0.5;exitDx=0;exitDy=0;edgeStyle=orthogonalEdgeStyle;entryX=1;entryY=0.5;entryDx=0;entryDy=0;" parent="1" source="QoSjCk249HeYtzjDVs_1-13" target="QoSjCk249HeYtzjDVs_1-8" edge="1">
          <mxGeometry width="50" height="50" relative="1" as="geometry">
            <mxPoint x="870" y="640" as="sourcePoint" />
            <mxPoint x="920" y="590" as="targetPoint" />
            <Array as="points">
              <mxPoint x="1040" y="280" />
              <mxPoint x="1040" y="140" />
            </Array>
          </mxGeometry>
        </mxCell>
        <mxCell id="QoSjCk249HeYtzjDVs_1-18" value="로그아웃" style="ellipse;whiteSpace=wrap;html=1;" parent="1" vertex="1">
          <mxGeometry x="580" y="450" width="100" height="60" as="geometry" />
        </mxCell>
        <mxCell id="QoSjCk249HeYtzjDVs_1-19" value="" style="endArrow=none;html=1;rounded=0;entryX=1;entryY=0.3333333333333333;entryDx=0;entryDy=0;entryPerimeter=0;exitX=0;exitY=0.5;exitDx=0;exitDy=0;" parent="1" source="QoSjCk249HeYtzjDVs_1-18" target="QoSjCk249HeYtzjDVs_1-2" edge="1">
          <mxGeometry width="50" height="50" relative="1" as="geometry">
            <mxPoint x="580" y="530" as="sourcePoint" />
            <mxPoint x="530" y="500" as="targetPoint" />
          </mxGeometry>
        </mxCell>
        <mxCell id="QoSjCk249HeYtzjDVs_1-20" value="비밀번호찾기" style="ellipse;whiteSpace=wrap;html=1;" parent="1" vertex="1">
          <mxGeometry x="930" y="195" width="80" height="40" as="geometry" />
        </mxCell>
        <mxCell id="QoSjCk249HeYtzjDVs_1-21" value="&amp;lt;&amp;lt;include&amp;gt;&amp;gt;" style="html=1;verticalAlign=bottom;labelBackgroundColor=none;endArrow=open;endFill=0;dashed=1;rounded=0;entryX=1;entryY=0.5;entryDx=0;entryDy=0;exitX=0;exitY=0.5;exitDx=0;exitDy=0;" parent="1" source="QoSjCk249HeYtzjDVs_1-20" target="QoSjCk249HeYtzjDVs_1-5" edge="1">
          <mxGeometry width="160" relative="1" as="geometry">
            <mxPoint x="920" y="340" as="sourcePoint" />
            <mxPoint x="1080" y="340" as="targetPoint" />
          </mxGeometry>
        </mxCell>
        <mxCell id="QoSjCk249HeYtzjDVs_1-22" value="&amp;lt;&amp;lt;include&amp;gt;&amp;gt;" style="html=1;verticalAlign=bottom;labelBackgroundColor=none;endArrow=open;endFill=0;dashed=1;rounded=0;entryX=0.5;entryY=1;entryDx=0;entryDy=0;exitX=0;exitY=0.5;exitDx=0;exitDy=0;edgeStyle=orthogonalEdgeStyle;" parent="1" source="QoSjCk249HeYtzjDVs_1-23" target="QoSjCk249HeYtzjDVs_1-11" edge="1">
          <mxGeometry x="-0.4419" y="-5" width="160" relative="1" as="geometry">
            <mxPoint x="740" y="520" as="sourcePoint" />
            <mxPoint x="820" y="504" as="targetPoint" />
            <mxPoint as="offset" />
          </mxGeometry>
        </mxCell>
        <mxCell id="QoSjCk249HeYtzjDVs_1-23" value="마이페이지" style="ellipse;whiteSpace=wrap;html=1;" parent="1" vertex="1">
          <mxGeometry x="730" y="410" width="90" height="50" as="geometry" />
        </mxCell>
        <mxCell id="QoSjCk249HeYtzjDVs_1-24" style="edgeStyle=orthogonalEdgeStyle;rounded=0;orthogonalLoop=1;jettySize=auto;html=1;entryX=1;entryY=0.5;entryDx=0;entryDy=0;" parent="1" source="QoSjCk249HeYtzjDVs_1-25" target="QoSjCk249HeYtzjDVs_1-31" edge="1">
          <mxGeometry relative="1" as="geometry">
            <mxPoint x="1000" y="435" as="targetPoint" />
          </mxGeometry>
        </mxCell>
        <mxCell id="QoSjCk249HeYtzjDVs_1-25" value="확인" style="ellipse;whiteSpace=wrap;html=1;" parent="1" vertex="1">
          <mxGeometry x="1070" y="415" width="80" height="40" as="geometry" />
        </mxCell>
        <mxCell id="QoSjCk249HeYtzjDVs_1-26" value="삭제(탈퇴)" style="ellipse;whiteSpace=wrap;html=1;" parent="1" vertex="1">
          <mxGeometry x="1070" y="530" width="80" height="40" as="geometry" />
        </mxCell>
        <mxCell id="QoSjCk249HeYtzjDVs_1-27" value="수정" style="ellipse;whiteSpace=wrap;html=1;" parent="1" vertex="1">
          <mxGeometry x="1070" y="470" width="80" height="40" as="geometry" />
        </mxCell>
        <mxCell id="QoSjCk249HeYtzjDVs_1-28" value="" style="endArrow=none;html=1;rounded=0;exitX=0;exitY=0.5;exitDx=0;exitDy=0;entryX=0;entryY=0.375;entryDx=0;entryDy=0;edgeStyle=orthogonalEdgeStyle;entryPerimeter=0;" parent="1" source="QoSjCk249HeYtzjDVs_1-25" target="QoSjCk249HeYtzjDVs_1-26" edge="1">
          <mxGeometry width="50" height="50" relative="1" as="geometry">
            <mxPoint x="910" y="550" as="sourcePoint" />
            <mxPoint x="1020" y="500" as="targetPoint" />
            <Array as="points">
              <mxPoint x="1040" y="435" />
              <mxPoint x="1040" y="550" />
            </Array>
          </mxGeometry>
        </mxCell>
        <mxCell id="QoSjCk249HeYtzjDVs_1-29" value="" style="endArrow=none;html=1;rounded=0;entryX=0;entryY=0.5;entryDx=0;entryDy=0;" parent="1" target="QoSjCk249HeYtzjDVs_1-27" edge="1">
          <mxGeometry width="50" height="50" relative="1" as="geometry">
            <mxPoint x="1040" y="490" as="sourcePoint" />
            <mxPoint x="780" y="290" as="targetPoint" />
            <Array as="points">
              <mxPoint x="1060" y="490" />
            </Array>
          </mxGeometry>
        </mxCell>
        <mxCell id="QoSjCk249HeYtzjDVs_1-30" style="edgeStyle=orthogonalEdgeStyle;shape=connector;rounded=0;orthogonalLoop=1;jettySize=auto;html=1;entryX=1;entryY=0.5;entryDx=0;entryDy=0;labelBackgroundColor=default;strokeColor=default;fontFamily=Helvetica;fontSize=11;fontColor=default;endArrow=classic;" parent="1" source="QoSjCk249HeYtzjDVs_1-31" target="QoSjCk249HeYtzjDVs_1-23" edge="1">
          <mxGeometry relative="1" as="geometry" />
        </mxCell>
        <mxCell id="QoSjCk249HeYtzjDVs_1-31" value="계정정보" style="ellipse;whiteSpace=wrap;html=1;" parent="1" vertex="1">
          <mxGeometry x="900" y="415" width="80" height="40" as="geometry" />
        </mxCell>
        <mxCell id="QoSjCk249HeYtzjDVs_1-32" value="수강내역&lt;br&gt;조회" style="ellipse;whiteSpace=wrap;html=1;" parent="1" vertex="1">
          <mxGeometry x="900" y="485" width="80" height="40" as="geometry" />
        </mxCell>
        <mxCell id="QoSjCk249HeYtzjDVs_1-33" value="" style="endArrow=none;html=1;rounded=0;exitX=0;exitY=0.375;exitDx=0;exitDy=0;edgeStyle=orthogonalEdgeStyle;exitPerimeter=0;" parent="1" source="QoSjCk249HeYtzjDVs_1-31" target="QoSjCk249HeYtzjDVs_1-34" edge="1">
          <mxGeometry width="50" height="50" relative="1" as="geometry">
            <mxPoint x="880" y="525" as="sourcePoint" />
            <mxPoint x="900" y="660" as="targetPoint" />
            <Array as="points">
              <mxPoint x="900" y="435" />
              <mxPoint x="860" y="435" />
              <mxPoint x="860" y="630" />
              <mxPoint x="940" y="630" />
            </Array>
          </mxGeometry>
        </mxCell>
        <mxCell id="QoSjCk249HeYtzjDVs_1-34" value="등록후기" style="ellipse;whiteSpace=wrap;html=1;" parent="1" vertex="1">
          <mxGeometry x="900" y="610" width="80" height="40" as="geometry" />
        </mxCell>
        <mxCell id="QoSjCk249HeYtzjDVs_1-35" value="" style="endArrow=none;html=1;rounded=0;labelBackgroundColor=default;strokeColor=default;fontFamily=Helvetica;fontSize=11;fontColor=default;shape=connector;entryX=0;entryY=0.5;entryDx=0;entryDy=0;" parent="1" target="QoSjCk249HeYtzjDVs_1-32" edge="1">
          <mxGeometry width="50" height="50" relative="1" as="geometry">
            <mxPoint x="860" y="505" as="sourcePoint" />
            <mxPoint x="828" y="545" as="targetPoint" />
          </mxGeometry>
        </mxCell>
        <mxCell id="QoSjCk249HeYtzjDVs_1-36" style="edgeStyle=orthogonalEdgeStyle;shape=connector;rounded=0;orthogonalLoop=1;jettySize=auto;html=1;entryX=1;entryY=0.5;entryDx=0;entryDy=0;labelBackgroundColor=default;strokeColor=default;fontFamily=Helvetica;fontSize=11;fontColor=default;endArrow=classic;" parent="1" source="QoSjCk249HeYtzjDVs_1-37" target="QoSjCk249HeYtzjDVs_1-34" edge="1">
          <mxGeometry relative="1" as="geometry" />
        </mxCell>
        <mxCell id="QoSjCk249HeYtzjDVs_1-37" value="상세조회" style="ellipse;whiteSpace=wrap;html=1;" parent="1" vertex="1">
          <mxGeometry x="1070" y="610" width="80" height="40" as="geometry" />
        </mxCell>
        <mxCell id="QoSjCk249HeYtzjDVs_1-38" value="수정" style="ellipse;whiteSpace=wrap;html=1;" parent="1" vertex="1">
          <mxGeometry x="1070" y="670" width="80" height="40" as="geometry" />
        </mxCell>
        <mxCell id="QoSjCk249HeYtzjDVs_1-39" value="" style="endArrow=none;html=1;rounded=0;labelBackgroundColor=default;strokeColor=default;fontFamily=Helvetica;fontSize=11;fontColor=default;shape=connector;entryX=0;entryY=0.5;entryDx=0;entryDy=0;edgeStyle=orthogonalEdgeStyle;exitX=0;exitY=0.5;exitDx=0;exitDy=0;" parent="1" source="QoSjCk249HeYtzjDVs_1-37" target="QoSjCk249HeYtzjDVs_1-38" edge="1">
          <mxGeometry width="50" height="50" relative="1" as="geometry">
            <mxPoint x="1020" y="800" as="sourcePoint" />
            <mxPoint x="1070" y="750" as="targetPoint" />
            <Array as="points">
              <mxPoint x="1040" y="630" />
              <mxPoint x="1040" y="690" />
            </Array>
          </mxGeometry>
        </mxCell>
        <mxCell id="QoSjCk249HeYtzjDVs_1-40" value="클래스 후기작성" style="ellipse;whiteSpace=wrap;html=1;" parent="1" vertex="1">
          <mxGeometry x="580" y="600" width="100" height="60" as="geometry" />
        </mxCell>
        <mxCell id="QoSjCk249HeYtzjDVs_1-41" value="" style="endArrow=none;html=1;rounded=0;entryX=1;entryY=0.3333333333333333;entryDx=0;entryDy=0;entryPerimeter=0;exitX=0;exitY=0.5;exitDx=0;exitDy=0;" parent="1" source="QoSjCk249HeYtzjDVs_1-40" target="QoSjCk249HeYtzjDVs_1-2" edge="1">
          <mxGeometry width="50" height="50" relative="1" as="geometry">
            <mxPoint x="570" y="590" as="sourcePoint" />
            <mxPoint x="460" y="440" as="targetPoint" />
          </mxGeometry>
        </mxCell>
        <mxCell id="QoSjCk249HeYtzjDVs_1-42" value="&amp;lt;&amp;lt;include&amp;gt;&amp;gt;" style="html=1;verticalAlign=bottom;labelBackgroundColor=none;endArrow=open;endFill=0;dashed=1;rounded=0;strokeColor=default;fontFamily=Helvetica;fontSize=11;fontColor=default;shape=connector;entryX=1;entryY=0.5;entryDx=0;entryDy=0;exitX=0;exitY=0.5;exitDx=0;exitDy=0;" parent="1" source="QoSjCk249HeYtzjDVs_1-34" target="QoSjCk249HeYtzjDVs_1-40" edge="1">
          <mxGeometry width="160" relative="1" as="geometry">
            <mxPoint x="760" y="670" as="sourcePoint" />
            <mxPoint x="920" y="670" as="targetPoint" />
          </mxGeometry>
        </mxCell>
        <mxCell id="QoSjCk249HeYtzjDVs_1-45" value="예약" style="ellipse;whiteSpace=wrap;html=1;" parent="1" vertex="1">
          <mxGeometry x="580" y="830" width="100" height="60" as="geometry" />
        </mxCell>
        <mxCell id="QoSjCk249HeYtzjDVs_1-46" value="" style="endArrow=none;html=1;rounded=0;exitX=0;exitY=0.5;exitDx=0;exitDy=0;entryX=1;entryY=0.3333333333333333;entryDx=0;entryDy=0;entryPerimeter=0;" parent="1" source="QoSjCk249HeYtzjDVs_1-45" target="QoSjCk249HeYtzjDVs_1-2" edge="1">
          <mxGeometry width="50" height="50" relative="1" as="geometry">
            <mxPoint x="590" y="800" as="sourcePoint" />
            <mxPoint x="480" y="420" as="targetPoint" />
          </mxGeometry>
        </mxCell>
        <mxCell id="QoSjCk249HeYtzjDVs_1-47" value="결제 API" style="shape=umlActor;verticalLabelPosition=bottom;verticalAlign=top;html=1;outlineConnect=0;" parent="1" vertex="1">
          <mxGeometry x="1241" y="830" width="30" height="60" as="geometry" />
        </mxCell>
        <mxCell id="QoSjCk249HeYtzjDVs_1-48" style="edgeStyle=orthogonalEdgeStyle;shape=connector;rounded=0;orthogonalLoop=1;jettySize=auto;html=1;labelBackgroundColor=default;strokeColor=default;fontFamily=Helvetica;fontSize=11;fontColor=default;endArrow=classic;exitX=1;exitY=0.5;exitDx=0;exitDy=0;" parent="1" source="QoSjCk249HeYtzjDVs_1-50" edge="1" target="QoSjCk249HeYtzjDVs_1-47">
          <mxGeometry relative="1" as="geometry">
            <mxPoint x="1200" y="880" as="targetPoint" />
            <mxPoint x="960" y="840" as="sourcePoint" />
          </mxGeometry>
        </mxCell>
        <mxCell id="QoSjCk249HeYtzjDVs_1-49" style="edgeStyle=orthogonalEdgeStyle;shape=connector;rounded=0;orthogonalLoop=1;jettySize=auto;html=1;labelBackgroundColor=default;strokeColor=default;fontFamily=Helvetica;fontSize=11;fontColor=default;endArrow=classic;entryX=1;entryY=0.5;entryDx=0;entryDy=0;" parent="1" source="QoSjCk249HeYtzjDVs_1-50" target="QoSjCk249HeYtzjDVs_1-45" edge="1">
          <mxGeometry relative="1" as="geometry">
            <mxPoint x="700" y="820" as="targetPoint" />
          </mxGeometry>
        </mxCell>
        <mxCell id="QoSjCk249HeYtzjDVs_1-50" value="결제" style="ellipse;whiteSpace=wrap;html=1;" parent="1" vertex="1">
          <mxGeometry x="885" y="840" width="80" height="40" as="geometry" />
        </mxCell>
        <mxCell id="QoSjCk249HeYtzjDVs_1-51" value="환불" style="ellipse;whiteSpace=wrap;html=1;" parent="1" vertex="1">
          <mxGeometry x="763" y="910" width="80" height="40" as="geometry" />
        </mxCell>
        <mxCell id="QoSjCk249HeYtzjDVs_1-52" value="결제내역 확인" style="ellipse;whiteSpace=wrap;html=1;" parent="1" vertex="1">
          <mxGeometry x="1080" y="900" width="80" height="40" as="geometry" />
        </mxCell>
        <mxCell id="QoSjCk249HeYtzjDVs_1-53" value="&amp;lt;&amp;lt;include&amp;gt;&amp;gt;" style="html=1;verticalAlign=bottom;labelBackgroundColor=none;endArrow=open;endFill=0;dashed=1;rounded=0;strokeColor=default;fontFamily=Helvetica;fontSize=11;fontColor=default;shape=connector;exitX=0;exitY=0.5;exitDx=0;exitDy=0;edgeStyle=orthogonalEdgeStyle;" parent="1" source="QoSjCk249HeYtzjDVs_1-52" edge="1">
          <mxGeometry x="-0.7092" y="-20" width="160" relative="1" as="geometry">
            <mxPoint x="1080" y="880" as="sourcePoint" />
            <mxPoint x="953" y="874" as="targetPoint" />
            <mxPoint as="offset" />
          </mxGeometry>
        </mxCell>
        <mxCell id="QoSjCk249HeYtzjDVs_1-54" value="&amp;lt;&amp;lt;include&amp;gt;&amp;gt;" style="html=1;verticalAlign=bottom;labelBackgroundColor=none;endArrow=open;endFill=0;dashed=1;rounded=0;strokeColor=default;fontFamily=Helvetica;fontSize=11;fontColor=default;shape=connector;entryX=0;entryY=1;entryDx=0;entryDy=0;exitX=1;exitY=0.5;exitDx=0;exitDy=0;edgeStyle=orthogonalEdgeStyle;" parent="1" source="QoSjCk249HeYtzjDVs_1-51" target="QoSjCk249HeYtzjDVs_1-50" edge="1">
          <mxGeometry x="-0.7473" y="20" width="160" relative="1" as="geometry">
            <mxPoint x="1010" y="930" as="sourcePoint" />
            <mxPoint x="958" y="844" as="targetPoint" />
            <mxPoint as="offset" />
          </mxGeometry>
        </mxCell>
        <mxCell id="QoSjCk249HeYtzjDVs_1-55" style="edgeStyle=orthogonalEdgeStyle;rounded=0;orthogonalLoop=1;jettySize=auto;html=1;entryX=1;entryY=0.5;entryDx=0;entryDy=0;" parent="1" source="QoSjCk249HeYtzjDVs_1-56" target="QoSjCk249HeYtzjDVs_1-63" edge="1">
          <mxGeometry relative="1" as="geometry">
            <mxPoint x="830" y="1010" as="targetPoint" />
          </mxGeometry>
        </mxCell>
        <mxCell id="QoSjCk249HeYtzjDVs_1-56" value="등록" style="ellipse;whiteSpace=wrap;html=1;" parent="1" vertex="1">
          <mxGeometry x="885" y="990" width="80" height="40" as="geometry" />
        </mxCell>
        <mxCell id="QoSjCk249HeYtzjDVs_1-57" value="삭제" style="ellipse;whiteSpace=wrap;html=1;" parent="1" vertex="1">
          <mxGeometry x="885" y="1105" width="80" height="40" as="geometry" />
        </mxCell>
        <mxCell id="QoSjCk249HeYtzjDVs_1-58" value="조회" style="ellipse;whiteSpace=wrap;html=1;" parent="1" vertex="1">
          <mxGeometry x="885" y="1045" width="80" height="40" as="geometry" />
        </mxCell>
        <mxCell id="QoSjCk249HeYtzjDVs_1-59" value="" style="endArrow=none;html=1;rounded=0;entryX=0;entryY=0.5;entryDx=0;entryDy=0;exitX=0;exitY=0.5;exitDx=0;exitDy=0;edgeStyle=orthogonalEdgeStyle;" parent="1" source="QoSjCk249HeYtzjDVs_1-56" target="QoSjCk249HeYtzjDVs_1-57" edge="1">
          <mxGeometry width="50" height="50" relative="1" as="geometry">
            <mxPoint x="1020" y="1100" as="sourcePoint" />
            <mxPoint x="1070" y="1050" as="targetPoint" />
            <Array as="points">
              <mxPoint x="860" y="1010" />
              <mxPoint x="860" y="1125" />
            </Array>
          </mxGeometry>
        </mxCell>
        <mxCell id="QoSjCk249HeYtzjDVs_1-60" value="" style="endArrow=none;html=1;rounded=0;exitX=0;exitY=0.5;exitDx=0;exitDy=0;" parent="1" source="QoSjCk249HeYtzjDVs_1-58" edge="1">
          <mxGeometry width="50" height="50" relative="1" as="geometry">
            <mxPoint x="1100" y="1030" as="sourcePoint" />
            <mxPoint x="860" y="1065" as="targetPoint" />
          </mxGeometry>
        </mxCell>
        <mxCell id="QoSjCk249HeYtzjDVs_1-61" value="클래스" style="ellipse;whiteSpace=wrap;html=1;" parent="1" vertex="1">
          <mxGeometry x="580" y="980" width="100" height="60" as="geometry" />
        </mxCell>
        <mxCell id="QoSjCk249HeYtzjDVs_1-62" style="edgeStyle=orthogonalEdgeStyle;rounded=0;orthogonalLoop=1;jettySize=auto;html=1;entryX=1;entryY=0.5;entryDx=0;entryDy=0;" parent="1" source="QoSjCk249HeYtzjDVs_1-63" target="QoSjCk249HeYtzjDVs_1-61" edge="1">
          <mxGeometry relative="1" as="geometry" />
        </mxCell>
        <mxCell id="QoSjCk249HeYtzjDVs_1-63" value="관심클래스" style="ellipse;whiteSpace=wrap;html=1;" parent="1" vertex="1">
          <mxGeometry x="740" y="985" width="90" height="50" as="geometry" />
        </mxCell>
        <mxCell id="QoSjCk249HeYtzjDVs_1-64" value="수강한 클래스" style="ellipse;whiteSpace=wrap;html=1;" parent="1" vertex="1">
          <mxGeometry x="740" y="1170" width="90" height="50" as="geometry" />
        </mxCell>
        <mxCell id="QoSjCk249HeYtzjDVs_1-65" value="" style="endArrow=none;html=1;rounded=0;entryX=0;entryY=0.5;entryDx=0;entryDy=0;edgeStyle=orthogonalEdgeStyle;" parent="1" target="QoSjCk249HeYtzjDVs_1-64" edge="1">
          <mxGeometry width="50" height="50" relative="1" as="geometry">
            <mxPoint x="740" y="1010" as="sourcePoint" />
            <mxPoint x="705" y="1200" as="targetPoint" />
            <Array as="points">
              <mxPoint x="710" y="1010" />
              <mxPoint x="710" y="1200" />
              <mxPoint x="740" y="1200" />
            </Array>
          </mxGeometry>
        </mxCell>
        <mxCell id="QoSjCk249HeYtzjDVs_1-66" style="edgeStyle=orthogonalEdgeStyle;rounded=0;orthogonalLoop=1;jettySize=auto;html=1;entryX=1;entryY=0.5;entryDx=0;entryDy=0;" parent="1" source="QoSjCk249HeYtzjDVs_1-67" target="QoSjCk249HeYtzjDVs_1-64" edge="1">
          <mxGeometry relative="1" as="geometry" />
        </mxCell>
        <mxCell id="QoSjCk249HeYtzjDVs_1-67" value="확인" style="ellipse;whiteSpace=wrap;html=1;" parent="1" vertex="1">
          <mxGeometry x="885" y="1175" width="80" height="40" as="geometry" />
        </mxCell>
        <mxCell id="QoSjCk249HeYtzjDVs_1-74" value="" style="endArrow=none;html=1;rounded=0;exitX=0;exitY=0.5;exitDx=0;exitDy=0;entryX=1;entryY=0.3333333333333333;entryDx=0;entryDy=0;entryPerimeter=0;" parent="1" source="QoSjCk249HeYtzjDVs_1-61" target="QoSjCk249HeYtzjDVs_1-2" edge="1">
          <mxGeometry width="50" height="50" relative="1" as="geometry">
            <mxPoint x="560" y="900" as="sourcePoint" />
            <mxPoint x="300" y="790" as="targetPoint" />
          </mxGeometry>
        </mxCell>
        <mxCell id="SyXUYA-TaLSqKmh3kKPd-1" value="삭제" style="ellipse;whiteSpace=wrap;html=1;" parent="1" vertex="1">
          <mxGeometry x="1070" y="730" width="80" height="40" as="geometry" />
        </mxCell>
        <mxCell id="SyXUYA-TaLSqKmh3kKPd-2" value="" style="endArrow=none;html=1;rounded=0;labelBackgroundColor=default;strokeColor=default;fontFamily=Helvetica;fontSize=11;fontColor=default;shape=connector;entryX=0;entryY=0.5;entryDx=0;entryDy=0;edgeStyle=orthogonalEdgeStyle;exitX=0;exitY=0.5;exitDx=0;exitDy=0;" parent="1" edge="1">
          <mxGeometry width="50" height="50" relative="1" as="geometry">
            <mxPoint x="1070" y="690" as="sourcePoint" />
            <mxPoint x="1070" y="750" as="targetPoint" />
            <Array as="points">
              <mxPoint x="1040" y="690" />
              <mxPoint x="1040" y="750" />
            </Array>
          </mxGeometry>
        </mxCell>
        <mxCell id="DN-Q5lib7PFjyMintfg_-1" value="입력" style="ellipse;whiteSpace=wrap;html=1;" vertex="1" parent="1">
          <mxGeometry x="1070" y="790" width="80" height="40" as="geometry" />
        </mxCell>
        <mxCell id="DN-Q5lib7PFjyMintfg_-2" style="edgeStyle=orthogonalEdgeStyle;rounded=0;orthogonalLoop=1;jettySize=auto;html=1;exitX=1;exitY=0.5;exitDx=0;exitDy=0;entryX=1;entryY=1;entryDx=0;entryDy=0;" edge="1" parent="1" source="QoSjCk249HeYtzjDVs_1-50" target="QoSjCk249HeYtzjDVs_1-50">
          <mxGeometry relative="1" as="geometry" />
        </mxCell>
        <mxCell id="DN-Q5lib7PFjyMintfg_-3" value="" style="endArrow=none;html=1;rounded=0;labelBackgroundColor=default;strokeColor=default;fontFamily=Helvetica;fontSize=11;fontColor=default;shape=connector;entryX=0;entryY=0.5;entryDx=0;entryDy=0;edgeStyle=orthogonalEdgeStyle;exitX=0;exitY=0.5;exitDx=0;exitDy=0;" edge="1" parent="1">
          <mxGeometry width="50" height="50" relative="1" as="geometry">
            <mxPoint x="1070" y="750" as="sourcePoint" />
            <mxPoint x="1070" y="810" as="targetPoint" />
            <Array as="points">
              <mxPoint x="1040" y="750" />
              <mxPoint x="1040" y="810" />
            </Array>
          </mxGeometry>
        </mxCell>
      </root>
    </mxGraphModel>
  </diagram>
</mxfile>
